G04 #@! TF.GenerationSoftware,KiCad,Pcbnew,9.0.6*
G04 #@! TF.CreationDate,2025-12-08T16:32:02-08:00*
G04 #@! TF.ProjectId,New Pad KiCad,4e657720-5061-4642-904b-694361642e6b,rev?*
G04 #@! TF.SameCoordinates,Original*
G04 #@! TF.FileFunction,Copper,L1,Top*
G04 #@! TF.FilePolarity,Positive*
%FSLAX46Y46*%
G04 Gerber Fmt 4.6, Leading zero omitted, Abs format (unit mm)*
G04 Created by KiCad (PCBNEW 9.0.6) date 2025-12-08 16:32:02*
%MOMM*%
%LPD*%
G01*
G04 APERTURE LIST*
G04 #@! TA.AperFunction,ComponentPad*
%ADD10C,2.300000*%
G04 #@! TD*
G04 #@! TA.AperFunction,ComponentPad*
%ADD11C,1.524000*%
G04 #@! TD*
G04 #@! TA.AperFunction,ViaPad*
%ADD12C,0.600000*%
G04 #@! TD*
G04 #@! TA.AperFunction,Conductor*
%ADD13C,0.200000*%
G04 #@! TD*
G04 APERTURE END LIST*
D10*
X144391012Y-113965000D03*
X139391012Y-111765000D03*
X182491012Y-113965000D03*
X177491012Y-111765000D03*
X182491012Y-94915000D03*
X177491012Y-92715000D03*
X163441012Y-133015000D03*
X158441012Y-130815000D03*
X144391012Y-133015000D03*
X139391012Y-130815000D03*
X163441012Y-113965000D03*
X158441012Y-111765000D03*
X182491012Y-133015000D03*
X177491012Y-130815000D03*
X144391012Y-94915000D03*
X139391012Y-92715000D03*
X163441012Y-94915000D03*
X158441012Y-92715000D03*
D11*
X166186012Y-92075000D03*
X166186012Y-94615000D03*
X166186012Y-97155000D03*
X166186012Y-99695000D03*
X166186012Y-102235000D03*
X166186012Y-104775000D03*
X166186012Y-107315000D03*
X150946012Y-107315000D03*
X150946012Y-104775000D03*
X150946012Y-102235000D03*
X150946012Y-99695000D03*
X150946012Y-97155000D03*
X150946012Y-94615000D03*
X150946012Y-92075000D03*
D12*
X162566012Y-92615000D03*
X150566012Y-110615000D03*
D13*
X163441012Y-113965000D02*
X163441012Y-94915000D01*
X182491012Y-94915000D02*
X182491012Y-113965000D01*
X182491012Y-113965000D02*
X182491012Y-133015000D01*
X144391012Y-113965000D02*
X144391012Y-133015000D01*
X144391012Y-94915000D02*
X144391012Y-113965000D01*
X144391012Y-133015000D02*
X163441012Y-133015000D01*
X182491012Y-133015000D02*
X163441012Y-133015000D01*
X163441012Y-133015000D02*
X163441012Y-113965000D01*
X158541012Y-92615000D02*
X162566012Y-92615000D01*
X158441012Y-92715000D02*
X158541012Y-92615000D01*
X150566012Y-122940000D02*
X158441012Y-130815000D01*
X150566012Y-110615000D02*
X150566012Y-122940000D01*
M02*
