G04 #@! TF.GenerationSoftware,KiCad,Pcbnew,9.0.6*
G04 #@! TF.CreationDate,2025-12-08T16:32:02-08:00*
G04 #@! TF.ProjectId,New Pad KiCad,4e657720-5061-4642-904b-694361642e6b,rev?*
G04 #@! TF.SameCoordinates,Original*
G04 #@! TF.FileFunction,Legend,Bot*
G04 #@! TF.FilePolarity,Positive*
%FSLAX46Y46*%
G04 Gerber Fmt 4.6, Leading zero omitted, Abs format (unit mm)*
G04 Created by KiCad (PCBNEW 9.0.6) date 2025-12-08 16:32:02*
%MOMM*%
%LPD*%
G01*
G04 APERTURE LIST*
G04 Aperture macros list*
%AMRoundRect*
0 Rectangle with rounded corners*
0 $1 Rounding radius*
0 $2 $3 $4 $5 $6 $7 $8 $9 X,Y pos of 4 corners*
0 Add a 4 corners polygon primitive as box body*
4,1,4,$2,$3,$4,$5,$6,$7,$8,$9,$2,$3,0*
0 Add four circle primitives for the rounded corners*
1,1,$1+$1,$2,$3*
1,1,$1+$1,$4,$5*
1,1,$1+$1,$6,$7*
1,1,$1+$1,$8,$9*
0 Add four rect primitives between the rounded corners*
20,1,$1+$1,$2,$3,$4,$5,0*
20,1,$1+$1,$4,$5,$6,$7,0*
20,1,$1+$1,$6,$7,$8,$9,0*
20,1,$1+$1,$8,$9,$2,$3,0*%
G04 Aperture macros list end*
%ADD10C,0.101600*%
%ADD11C,0.000000*%
%ADD12C,0.127000*%
%ADD13C,0.100000*%
%ADD14C,0.504000*%
%ADD15O,1.500000X2.000000*%
%ADD16C,5.000000*%
%ADD17C,2.300000*%
%ADD18RoundRect,0.152400X-1.063600X-0.609600X1.063600X-0.609600X1.063600X0.609600X-1.063600X0.609600X0*%
%ADD19C,1.524000*%
%ADD20RoundRect,0.152400X1.063600X0.609600X-1.063600X0.609600X-1.063600X-0.609600X1.063600X-0.609600X0*%
G04 APERTURE END LIST*
D10*
X167549821Y-87348479D02*
X167549821Y-87862526D01*
X167549821Y-87862526D02*
X167519583Y-87923002D01*
X167519583Y-87923002D02*
X167489345Y-87953241D01*
X167489345Y-87953241D02*
X167428869Y-87983479D01*
X167428869Y-87983479D02*
X167307916Y-87983479D01*
X167307916Y-87983479D02*
X167247440Y-87953241D01*
X167247440Y-87953241D02*
X167217202Y-87923002D01*
X167217202Y-87923002D02*
X167186964Y-87862526D01*
X167186964Y-87862526D02*
X167186964Y-87348479D01*
X166551964Y-87983479D02*
X166914821Y-87983479D01*
X166733393Y-87983479D02*
X166733393Y-87348479D01*
X166733393Y-87348479D02*
X166793869Y-87439193D01*
X166793869Y-87439193D02*
X166854345Y-87499669D01*
X166854345Y-87499669D02*
X166914821Y-87529907D01*
D11*
G36*
X134248784Y-91536423D02*
G01*
X134094278Y-91536423D01*
X134023462Y-91510672D01*
X133989843Y-91431989D01*
X134020601Y-91357597D01*
X134095708Y-91327554D01*
X134248784Y-91327554D01*
X134248784Y-91536423D01*
G37*
G36*
X132600715Y-91630844D02*
G01*
X132630758Y-91703805D01*
X132599285Y-91776052D01*
X132526323Y-91806810D01*
X132454793Y-91776052D01*
X132424750Y-91703805D01*
X132454793Y-91630844D01*
X132527754Y-91600801D01*
X132600715Y-91630844D01*
G37*
G36*
X133398283Y-91630844D02*
G01*
X133429041Y-91703805D01*
X133396853Y-91774621D01*
X133321745Y-91805379D01*
X133252361Y-91774621D01*
X133223033Y-91702375D01*
X133252361Y-91629413D01*
X133324607Y-91599371D01*
X133398283Y-91630844D01*
G37*
G36*
X136147272Y-90422138D02*
G01*
X136256312Y-90438312D01*
X136363241Y-90465096D01*
X136467029Y-90502233D01*
X136566679Y-90549363D01*
X136661228Y-90606034D01*
X136749768Y-90671700D01*
X136831445Y-90745727D01*
X136905473Y-90827404D01*
X136971138Y-90915944D01*
X137027809Y-91010494D01*
X137074940Y-91110143D01*
X137112076Y-91213932D01*
X137138860Y-91320861D01*
X137155035Y-91429900D01*
X137160443Y-91540000D01*
X137155035Y-91650100D01*
X137138860Y-91759139D01*
X137112076Y-91866068D01*
X137074940Y-91969857D01*
X137027809Y-92069506D01*
X136971138Y-92164056D01*
X136905473Y-92252596D01*
X136831445Y-92334273D01*
X136749768Y-92408300D01*
X136661228Y-92473966D01*
X136566679Y-92530637D01*
X136467029Y-92577767D01*
X136363241Y-92614904D01*
X136256312Y-92641688D01*
X136147272Y-92657862D01*
X136037172Y-92663271D01*
X136037053Y-92663271D01*
X135908298Y-92663271D01*
X134740916Y-92663271D01*
X134380401Y-92663271D01*
X133085694Y-92663271D01*
X132291702Y-92663271D01*
X132162947Y-92663271D01*
X132162828Y-92663271D01*
X132052728Y-92657862D01*
X131943688Y-92641688D01*
X131836759Y-92614904D01*
X131732971Y-92577767D01*
X131633321Y-92530637D01*
X131538772Y-92473966D01*
X131450232Y-92408300D01*
X131368555Y-92334273D01*
X131294527Y-92252596D01*
X131228862Y-92164056D01*
X131172191Y-92069506D01*
X131125060Y-91969857D01*
X131087924Y-91866068D01*
X131061140Y-91759139D01*
X131044965Y-91650100D01*
X131039557Y-91540000D01*
X131044965Y-91429900D01*
X131061140Y-91320861D01*
X131087924Y-91213932D01*
X131113814Y-91141574D01*
X132162947Y-91141574D01*
X132162947Y-91935565D01*
X132165093Y-91983491D01*
X132178684Y-92022833D01*
X132218026Y-92055737D01*
X132291702Y-92065751D01*
X132368240Y-92052518D01*
X132409013Y-92012818D01*
X132478398Y-92051445D01*
X132560658Y-92064320D01*
X132643395Y-92052081D01*
X132719933Y-92015362D01*
X132790272Y-91954163D01*
X132846304Y-91877069D01*
X132879924Y-91792663D01*
X132891130Y-91700944D01*
X132879844Y-91611610D01*
X132845986Y-91528635D01*
X132803254Y-91470615D01*
X132955508Y-91470615D01*
X132955508Y-91935565D01*
X132957654Y-91984206D01*
X132971245Y-92022117D01*
X133011302Y-92054306D01*
X133085694Y-92064320D01*
X133166881Y-92051445D01*
X133207296Y-92012818D01*
X133275608Y-92051445D01*
X133357511Y-92064320D01*
X133440248Y-92052081D01*
X133516786Y-92015362D01*
X133587124Y-91954163D01*
X133643157Y-91877069D01*
X133676776Y-91792663D01*
X133687983Y-91700944D01*
X133676697Y-91611610D01*
X133642839Y-91528635D01*
X133586409Y-91452017D01*
X133564961Y-91433419D01*
X133729471Y-91433419D01*
X133738412Y-91518004D01*
X133765236Y-91594363D01*
X133806187Y-91659278D01*
X133857511Y-91709528D01*
X133915451Y-91747439D01*
X133976252Y-91775336D01*
X134037232Y-91792504D01*
X134095708Y-91798226D01*
X134248784Y-91798226D01*
X134248784Y-91935565D01*
X134250930Y-91984921D01*
X134264521Y-92023548D01*
X134304578Y-92055737D01*
X134380401Y-92065751D01*
X134454793Y-92055737D01*
X134494850Y-92022833D01*
X134508441Y-91983491D01*
X134510587Y-91934134D01*
X134510587Y-91473476D01*
X134610730Y-91473476D01*
X134610730Y-91938426D01*
X134612876Y-91987067D01*
X134626466Y-92024979D01*
X134665808Y-92057167D01*
X134740916Y-92067182D01*
X134814592Y-92057167D01*
X134853934Y-92024979D01*
X134867525Y-91986352D01*
X134869671Y-91936996D01*
X134869671Y-91470615D01*
X134867525Y-91422690D01*
X134853934Y-91384063D01*
X134813877Y-91351874D01*
X134740916Y-91342052D01*
X134739485Y-91341860D01*
X134665808Y-91351874D01*
X134626466Y-91384778D01*
X134612876Y-91424120D01*
X134610730Y-91473476D01*
X134510587Y-91473476D01*
X134510587Y-91195937D01*
X134508441Y-91148011D01*
X134506711Y-91143004D01*
X134610730Y-91143004D01*
X134612876Y-91191645D01*
X134626466Y-91229557D01*
X134665808Y-91261745D01*
X134740916Y-91271760D01*
X134814592Y-91261745D01*
X134853934Y-91228841D01*
X134864313Y-91198798D01*
X134959800Y-91198798D01*
X134959800Y-91936996D01*
X134962661Y-91985637D01*
X134976967Y-92024263D01*
X135016309Y-92055737D01*
X135091416Y-92065751D01*
X135165808Y-92055737D01*
X135205866Y-92022833D01*
X135219456Y-91983491D01*
X135221602Y-91934134D01*
X135221602Y-91527840D01*
X135388984Y-91755308D01*
X135397568Y-91766753D01*
X135411159Y-91782489D01*
X135429757Y-91796795D01*
X135459800Y-91809671D01*
X135499142Y-91813963D01*
X135563519Y-91799299D01*
X135610730Y-91755308D01*
X135776681Y-91529270D01*
X135776681Y-91936996D01*
X135778827Y-91984921D01*
X135792418Y-92023548D01*
X135832475Y-92055737D01*
X135908298Y-92065751D01*
X135981974Y-92055737D01*
X136020601Y-92023548D01*
X136034192Y-91984206D01*
X136037053Y-91934134D01*
X136037053Y-91195937D01*
X136034907Y-91148011D01*
X136021316Y-91109385D01*
X135981259Y-91077196D01*
X135905436Y-91067182D01*
X135867525Y-91069328D01*
X135841774Y-91072904D01*
X135823176Y-91079342D01*
X135811016Y-91086495D01*
X135800286Y-91097225D01*
X135790987Y-91107239D01*
X135499142Y-91482060D01*
X135208727Y-91108670D01*
X135165808Y-91075765D01*
X135089986Y-91067182D01*
X135015594Y-91077196D01*
X134976252Y-91109385D01*
X134962661Y-91148727D01*
X134959800Y-91198798D01*
X134864313Y-91198798D01*
X134867525Y-91189499D01*
X134869671Y-91141574D01*
X134867525Y-91093648D01*
X134853934Y-91055021D01*
X134813877Y-91022833D01*
X134739485Y-91012818D01*
X134665808Y-91022833D01*
X134626466Y-91055737D01*
X134612876Y-91095079D01*
X134610730Y-91143004D01*
X134506711Y-91143004D01*
X134494850Y-91108670D01*
X134454793Y-91075765D01*
X134378970Y-91065751D01*
X134094278Y-91065751D01*
X134035980Y-91071474D01*
X133975536Y-91088641D01*
X133915451Y-91116538D01*
X133858226Y-91154449D01*
X133807260Y-91205057D01*
X133765951Y-91271044D01*
X133738591Y-91348476D01*
X133729471Y-91433419D01*
X133564961Y-91433419D01*
X133515832Y-91390819D01*
X133439533Y-91354100D01*
X133357511Y-91341860D01*
X133273462Y-91356166D01*
X133207296Y-91399084D01*
X133170815Y-91355093D01*
X133084263Y-91340429D01*
X133010587Y-91350443D01*
X132971245Y-91383348D01*
X132957654Y-91422690D01*
X132955508Y-91470615D01*
X132803254Y-91470615D01*
X132789557Y-91452017D01*
X132718980Y-91390819D01*
X132642680Y-91354100D01*
X132560658Y-91341860D01*
X132482332Y-91353662D01*
X132416166Y-91389070D01*
X132416166Y-91143004D01*
X132416881Y-91105808D01*
X132411159Y-91070043D01*
X132392561Y-91040000D01*
X132355365Y-91019971D01*
X132293133Y-91012818D01*
X132218026Y-91022833D01*
X132178684Y-91055021D01*
X132165093Y-91093648D01*
X132162947Y-91141574D01*
X131113814Y-91141574D01*
X131125060Y-91110143D01*
X131172191Y-91010494D01*
X131228862Y-90915944D01*
X131294527Y-90827404D01*
X131368555Y-90745727D01*
X131450232Y-90671700D01*
X131538772Y-90606034D01*
X131633321Y-90549363D01*
X131732971Y-90502233D01*
X131836759Y-90465096D01*
X131943688Y-90438312D01*
X132052728Y-90422138D01*
X132162828Y-90416729D01*
X132162947Y-90416729D01*
X136037053Y-90416729D01*
X136037172Y-90416729D01*
X136147272Y-90422138D01*
G37*
G36*
X134688112Y-93128326D02*
G01*
X134722446Y-93166953D01*
X134707425Y-93214163D01*
X134570801Y-93420172D01*
X134626595Y-93544635D01*
X134635894Y-93594349D01*
X134595122Y-93629041D01*
X134541831Y-93637983D01*
X134510000Y-93597568D01*
X134334750Y-93204864D01*
X134327239Y-93156938D01*
X134367654Y-93123319D01*
X134420587Y-93115451D01*
X134452775Y-93155508D01*
X134509285Y-93281402D01*
X134598698Y-93146209D01*
X134636609Y-93112232D01*
X134688112Y-93128326D01*
G37*
G36*
X136085823Y-93128326D02*
G01*
X136120157Y-93166953D01*
X136105136Y-93214163D01*
X135968512Y-93420172D01*
X136024306Y-93544635D01*
X136033605Y-93594349D01*
X135992833Y-93629041D01*
X135939542Y-93637983D01*
X135907711Y-93597568D01*
X135732461Y-93204864D01*
X135724950Y-93156938D01*
X135765365Y-93123319D01*
X135818298Y-93115451D01*
X135850486Y-93155508D01*
X135906996Y-93281402D01*
X135996409Y-93146209D01*
X136034320Y-93112232D01*
X136085823Y-93128326D01*
G37*
G36*
X133629814Y-93126627D02*
G01*
X133646624Y-93154793D01*
X133713863Y-93307868D01*
X133781102Y-93154793D01*
X133815794Y-93114020D01*
X133869084Y-93125465D01*
X133907711Y-93162303D01*
X133897697Y-93213448D01*
X133771087Y-93454506D01*
X133748555Y-93478112D01*
X133713863Y-93485980D01*
X133679170Y-93478112D01*
X133656638Y-93454506D01*
X133530029Y-93213448D01*
X133518226Y-93178398D01*
X133526810Y-93149785D01*
X133558641Y-93125465D01*
X133610858Y-93113662D01*
X133629814Y-93126627D01*
G37*
G36*
X135328312Y-92992060D02*
G01*
X135353348Y-93019599D01*
X135532890Y-93391559D01*
X135542189Y-93441989D01*
X135502132Y-93476681D01*
X135449914Y-93487053D01*
X135414149Y-93447353D01*
X135381245Y-93378684D01*
X135327597Y-93378684D01*
X135205279Y-93378684D01*
X135172375Y-93446638D01*
X135137325Y-93487768D01*
X135084392Y-93477396D01*
X135044692Y-93442346D01*
X135054349Y-93391559D01*
X135114542Y-93267096D01*
X135260358Y-93267096D01*
X135327597Y-93267096D01*
X135293977Y-93197711D01*
X135260358Y-93267096D01*
X135114542Y-93267096D01*
X135233891Y-93020315D01*
X135258391Y-92991345D01*
X135293262Y-92981688D01*
X135328312Y-92992060D01*
G37*
G36*
X134855136Y-93123677D02*
G01*
X134891259Y-93148355D01*
X134911288Y-93126359D01*
X134952775Y-93119027D01*
X134990329Y-93124034D01*
X135010000Y-93140129D01*
X135016795Y-93159084D01*
X135017868Y-93183405D01*
X135017868Y-93416595D01*
X135016795Y-93441273D01*
X135010000Y-93460944D01*
X134990329Y-93477396D01*
X134953491Y-93482403D01*
X134915579Y-93477396D01*
X134895551Y-93461302D01*
X134888755Y-93442346D01*
X134887682Y-93418026D01*
X134887682Y-93278541D01*
X134873734Y-93252432D01*
X134838326Y-93242060D01*
X134820801Y-93247425D01*
X134793262Y-93252790D01*
X134753205Y-93228112D01*
X134741402Y-93200483D01*
X134737468Y-93166953D01*
X134746409Y-93139771D01*
X134769657Y-93123677D01*
X134795408Y-93117239D01*
X134816867Y-93115451D01*
X134855136Y-93123677D01*
G37*
G36*
X134048984Y-93126359D02*
G01*
X134067225Y-93148355D01*
X134100308Y-93126896D01*
X134142332Y-93119742D01*
X134183343Y-93125862D01*
X134221493Y-93144222D01*
X134256781Y-93174821D01*
X134284996Y-93213130D01*
X134301925Y-93254618D01*
X134307568Y-93299285D01*
X134301965Y-93345144D01*
X134285155Y-93387347D01*
X134257139Y-93425894D01*
X134221969Y-93456493D01*
X134183701Y-93474853D01*
X134142332Y-93480973D01*
X134124449Y-93478162D01*
X134101381Y-93474535D01*
X134067225Y-93455222D01*
X134047017Y-93474535D01*
X134006423Y-93480973D01*
X133969227Y-93475966D01*
X133949199Y-93459871D01*
X133942403Y-93440916D01*
X133941330Y-93416595D01*
X133941330Y-93300000D01*
X134075093Y-93300000D01*
X134089757Y-93336123D01*
X134124449Y-93351502D01*
X134162003Y-93336123D01*
X134178097Y-93300715D01*
X134162718Y-93264235D01*
X134125880Y-93248498D01*
X134089757Y-93263519D01*
X134075093Y-93300000D01*
X133941330Y-93300000D01*
X133941330Y-93184120D01*
X133942403Y-93160157D01*
X133949199Y-93140486D01*
X133968870Y-93124034D01*
X134005708Y-93119027D01*
X134048984Y-93126359D01*
G37*
G36*
X136475308Y-92960229D02*
G01*
X136494979Y-92976323D01*
X136501774Y-92995637D01*
X136502847Y-93019599D01*
X136502847Y-93416595D01*
X136501774Y-93440558D01*
X136494979Y-93460229D01*
X136475308Y-93476681D01*
X136438469Y-93481688D01*
X136400200Y-93475072D01*
X136379814Y-93455222D01*
X136345122Y-93474535D01*
X136321159Y-93478286D01*
X136303991Y-93480973D01*
X136262623Y-93474853D01*
X136224354Y-93456493D01*
X136189185Y-93425894D01*
X136161168Y-93387347D01*
X136144359Y-93345144D01*
X136138930Y-93300715D01*
X136268941Y-93300715D01*
X136284678Y-93336838D01*
X136321159Y-93352217D01*
X136356924Y-93336838D01*
X136371946Y-93300715D01*
X136356924Y-93264235D01*
X136320443Y-93249213D01*
X136283963Y-93264235D01*
X136268941Y-93300715D01*
X136138930Y-93300715D01*
X136138755Y-93299285D01*
X136144398Y-93254618D01*
X136161327Y-93213130D01*
X136189542Y-93174821D01*
X136224831Y-93144222D01*
X136262980Y-93125862D01*
X136303991Y-93119742D01*
X136343155Y-93125644D01*
X136376237Y-93143348D01*
X136376237Y-93020315D01*
X136375880Y-93001717D01*
X136378741Y-92983834D01*
X136388040Y-92968813D01*
X136406638Y-92958798D01*
X136437754Y-92955222D01*
X136475308Y-92960229D01*
G37*
D12*
X149676012Y-108204000D02*
X149676012Y-91059000D01*
D13*
X151581012Y-89154000D02*
X165551012Y-89154000D01*
D12*
X151581012Y-89154000D02*
X165551012Y-89154000D01*
X154062012Y-88244000D02*
X154062012Y-89154000D01*
X162557284Y-87744000D02*
X154562012Y-87744000D01*
X163061012Y-89154000D02*
X163057284Y-88243728D01*
X165551012Y-110109000D02*
X151581012Y-110109000D01*
X167456012Y-108204000D02*
X167456012Y-91059000D01*
X149676012Y-91059000D02*
G75*
G02*
X151581012Y-89154000I1905000J0D01*
G01*
X151581012Y-110109000D02*
G75*
G02*
X149676012Y-108204000I0J1905000D01*
G01*
X154062012Y-88244000D02*
G75*
G02*
X154562012Y-87744000I500000J0D01*
G01*
X162557284Y-87744000D02*
G75*
G02*
X163057285Y-88243728I-18J-500019D01*
G01*
X165551012Y-89154000D02*
G75*
G02*
X167456012Y-91059000I-1J-1905001D01*
G01*
X167456012Y-108204000D02*
G75*
G02*
X165551012Y-110109000I-1905001J1D01*
G01*
D14*
X166625012Y-90275000D02*
G75*
G02*
X166121012Y-90275000I-252000J0D01*
G01*
X166121012Y-90275000D02*
G75*
G02*
X166625012Y-90275000I252000J0D01*
G01*
X167768012Y-89395000D02*
G75*
G02*
X167264012Y-89395000I-252000J0D01*
G01*
X167264012Y-89395000D02*
G75*
G02*
X167768012Y-89395000I252000J0D01*
G01*
%LPC*%
D15*
X134391012Y-122915000D03*
D16*
X139391012Y-117765000D03*
D17*
X144391012Y-113965000D03*
X139391012Y-111765000D03*
D15*
X172491012Y-122915000D03*
D16*
X177491012Y-117765000D03*
D17*
X182491012Y-113965000D03*
X177491012Y-111765000D03*
D15*
X172491012Y-103865000D03*
D16*
X177491012Y-98715000D03*
D17*
X182491012Y-94915000D03*
X177491012Y-92715000D03*
D15*
X153441012Y-141965000D03*
D16*
X158441012Y-136815000D03*
D17*
X163441012Y-133015000D03*
X158441012Y-130815000D03*
D15*
X134391012Y-141965000D03*
D16*
X139391012Y-136815000D03*
D17*
X144391012Y-133015000D03*
X139391012Y-130815000D03*
D15*
X153441012Y-122915000D03*
D16*
X158441012Y-117765000D03*
D17*
X163441012Y-113965000D03*
X158441012Y-111765000D03*
D15*
X172491012Y-141965000D03*
D16*
X177491012Y-136815000D03*
D17*
X182491012Y-133015000D03*
X177491012Y-130815000D03*
D15*
X134391012Y-103865000D03*
D16*
X139391012Y-98715000D03*
D17*
X144391012Y-94915000D03*
X139391012Y-92715000D03*
D15*
X153441012Y-103865000D03*
D16*
X158441012Y-98715000D03*
D17*
X163441012Y-94915000D03*
X158441012Y-92715000D03*
D18*
X167021012Y-92075000D03*
D19*
X166186012Y-92075000D03*
D18*
X167021012Y-94615000D03*
D19*
X166186012Y-94615000D03*
D18*
X167021012Y-97155000D03*
D19*
X166186012Y-97155000D03*
D18*
X167021012Y-99695000D03*
D19*
X166186012Y-99695000D03*
D18*
X167021012Y-102235000D03*
D19*
X166186012Y-102235000D03*
D18*
X167021012Y-104775000D03*
D19*
X166186012Y-104775000D03*
D18*
X167021012Y-107315000D03*
D19*
X166186012Y-107315000D03*
X150946012Y-107315000D03*
D20*
X150111012Y-107315000D03*
D19*
X150946012Y-104775000D03*
D20*
X150111012Y-104775000D03*
D19*
X150946012Y-102235000D03*
D20*
X150111012Y-102235000D03*
D19*
X150946012Y-99695000D03*
D20*
X150111012Y-99695000D03*
D19*
X150946012Y-97155000D03*
D20*
X150111012Y-97155000D03*
D19*
X150946012Y-94615000D03*
D20*
X150111012Y-94615000D03*
D19*
X150946012Y-92075000D03*
D20*
X150111012Y-92075000D03*
%LPD*%
M02*
