G04 #@! TF.GenerationSoftware,KiCad,Pcbnew,9.0.6*
G04 #@! TF.CreationDate,2025-12-08T16:32:02-08:00*
G04 #@! TF.ProjectId,New Pad KiCad,4e657720-5061-4642-904b-694361642e6b,rev?*
G04 #@! TF.SameCoordinates,Original*
G04 #@! TF.FileFunction,Copper,L2,Bot*
G04 #@! TF.FilePolarity,Positive*
%FSLAX46Y46*%
G04 Gerber Fmt 4.6, Leading zero omitted, Abs format (unit mm)*
G04 Created by KiCad (PCBNEW 9.0.6) date 2025-12-08 16:32:02*
%MOMM*%
%LPD*%
G01*
G04 APERTURE LIST*
G04 Aperture macros list*
%AMRoundRect*
0 Rectangle with rounded corners*
0 $1 Rounding radius*
0 $2 $3 $4 $5 $6 $7 $8 $9 X,Y pos of 4 corners*
0 Add a 4 corners polygon primitive as box body*
4,1,4,$2,$3,$4,$5,$6,$7,$8,$9,$2,$3,0*
0 Add four circle primitives for the rounded corners*
1,1,$1+$1,$2,$3*
1,1,$1+$1,$4,$5*
1,1,$1+$1,$6,$7*
1,1,$1+$1,$8,$9*
0 Add four rect primitives between the rounded corners*
20,1,$1+$1,$2,$3,$4,$5,0*
20,1,$1+$1,$4,$5,$6,$7,0*
20,1,$1+$1,$6,$7,$8,$9,0*
20,1,$1+$1,$8,$9,$2,$3,0*%
G04 Aperture macros list end*
G04 #@! TA.AperFunction,ComponentPad*
%ADD10C,2.300000*%
G04 #@! TD*
G04 #@! TA.AperFunction,SMDPad,CuDef*
%ADD11RoundRect,0.152400X-1.063600X-0.609600X1.063600X-0.609600X1.063600X0.609600X-1.063600X0.609600X0*%
G04 #@! TD*
G04 #@! TA.AperFunction,ComponentPad*
%ADD12C,1.524000*%
G04 #@! TD*
G04 #@! TA.AperFunction,SMDPad,CuDef*
%ADD13RoundRect,0.152400X1.063600X0.609600X-1.063600X0.609600X-1.063600X-0.609600X1.063600X-0.609600X0*%
G04 #@! TD*
G04 #@! TA.AperFunction,ViaPad*
%ADD14C,0.600000*%
G04 #@! TD*
G04 #@! TA.AperFunction,Conductor*
%ADD15C,0.200000*%
G04 #@! TD*
G04 APERTURE END LIST*
D10*
X144391012Y-113965000D03*
X139391012Y-111765000D03*
X182491012Y-113965000D03*
X177491012Y-111765000D03*
X182491012Y-94915000D03*
X177491012Y-92715000D03*
X163441012Y-133015000D03*
X158441012Y-130815000D03*
X144391012Y-133015000D03*
X139391012Y-130815000D03*
X163441012Y-113965000D03*
X158441012Y-111765000D03*
X182491012Y-133015000D03*
X177491012Y-130815000D03*
X144391012Y-94915000D03*
X139391012Y-92715000D03*
X163441012Y-94915000D03*
X158441012Y-92715000D03*
D11*
X167021012Y-92075000D03*
D12*
X166186012Y-92075000D03*
D11*
X167021012Y-94615000D03*
D12*
X166186012Y-94615000D03*
D11*
X167021012Y-97155000D03*
D12*
X166186012Y-97155000D03*
D11*
X167021012Y-99695000D03*
D12*
X166186012Y-99695000D03*
D11*
X167021012Y-102235000D03*
D12*
X166186012Y-102235000D03*
D11*
X167021012Y-104775000D03*
D12*
X166186012Y-104775000D03*
D11*
X167021012Y-107315000D03*
D12*
X166186012Y-107315000D03*
X150946012Y-107315000D03*
D13*
X150111012Y-107315000D03*
D12*
X150946012Y-104775000D03*
D13*
X150111012Y-104775000D03*
D12*
X150946012Y-102235000D03*
D13*
X150111012Y-102235000D03*
D12*
X150946012Y-99695000D03*
D13*
X150111012Y-99695000D03*
D12*
X150946012Y-97155000D03*
D13*
X150111012Y-97155000D03*
D12*
X150946012Y-94615000D03*
D13*
X150111012Y-94615000D03*
D12*
X150946012Y-92075000D03*
D13*
X150111012Y-92075000D03*
D14*
X162566012Y-92615000D03*
X150566012Y-110615000D03*
D15*
X166186012Y-92075000D02*
X166186012Y-91695000D01*
X141940012Y-90166000D02*
X139391012Y-92715000D01*
X164657012Y-90166000D02*
X141940012Y-90166000D01*
X164657012Y-90166000D02*
X164657012Y-90546000D01*
X164657012Y-90546000D02*
X166186012Y-92075000D01*
X150946012Y-94615000D02*
X144691012Y-94615000D01*
X144691012Y-94615000D02*
X144391012Y-94915000D01*
X162566012Y-92615000D02*
X164566012Y-92615000D01*
X164566012Y-92615000D02*
X166566012Y-94615000D01*
X173051012Y-97155000D02*
X166186012Y-97155000D01*
X173051012Y-97155000D02*
X177491012Y-92715000D01*
X151611806Y-111765000D02*
X139391012Y-111765000D01*
X163681806Y-99695000D02*
X151611806Y-111765000D01*
X163681806Y-99695000D02*
X166186012Y-99695000D01*
X161566012Y-110615000D02*
X161566012Y-106855000D01*
X161566012Y-106855000D02*
X166186012Y-102235000D01*
X159591012Y-110615000D02*
X161566012Y-110615000D01*
X158441012Y-111765000D02*
X159591012Y-110615000D01*
X170501012Y-104775000D02*
X166186012Y-104775000D01*
X170501012Y-104775000D02*
X177491012Y-111765000D01*
X159017012Y-114484000D02*
X166186012Y-107315000D01*
X159017012Y-114864000D02*
X155342012Y-114864000D01*
X155342012Y-114864000D02*
X139391012Y-130815000D01*
X159017012Y-114864000D02*
X159017012Y-114484000D01*
X150566012Y-107695000D02*
X150946012Y-107315000D01*
X150566012Y-110615000D02*
X150566012Y-107695000D01*
X144328988Y-104775000D02*
X136490012Y-112613976D01*
X138837378Y-140364000D02*
X167942012Y-140364000D01*
X136490012Y-112613976D02*
X136490012Y-138016634D01*
X144328988Y-104775000D02*
X150946012Y-104775000D01*
X167942012Y-140364000D02*
X177491012Y-130815000D01*
X136490012Y-138016634D02*
X138837378Y-140364000D01*
M02*
